<svg width="258" height="258" xmlns="http://www.w3.org/2000/svg" xmlns:xlink="http://www.w3.org/1999/xlink"><defs><path id="a" d="M0 .882h257.118V258H0z"/></defs><g fill="none" fill-rule="evenodd"><path d="M26.997 123.39l-4.703 1.485c-.316.109-.812.259-1.489.449-.677.189-1.172.319-1.487.389.955.236 1.997.571 3.127 1.007l4.424 1.661.128-4.991zm7.232-2.264l-4.799 1.588-.169 6.549 4.714 1.797-.077 2.953-17.032-6.851.078-3.046 17.363-5.965-.078 2.975zM26.564 112.217l.267-1.464c.258-1.414.201-2.496-.17-3.247-.37-.75-1.08-1.222-2.125-1.412-.969-.177-1.745-.012-2.329.493-.585.505-.992 1.383-1.22 2.636l-.348 1.914 5.925 1.08zm-1.604-8.976c1.76.321 3.005 1.143 3.732 2.467.727 1.323.896 3.05.51 5.18l-.32 1.751 6.306 1.15-.503 2.755-16.854-3.072.884-4.854c.384-2.106 1.102-3.605 2.154-4.497 1.052-.892 2.416-1.185 4.091-.88zM30.132 97.189l.483-1.407c.467-1.36.574-2.438.319-3.237-.254-.797-.884-1.37-1.89-1.714-.93-.32-1.723-.274-2.376.137-.653.412-1.187 1.22-1.6 2.424l-.633 1.84 5.697 1.957zm-.24-9.115c1.693.58 2.8 1.58 3.32 2.999.52 1.418.429 3.15-.274 5.197l-.578 1.685 6.06 2.083-.908 2.648-16.203-5.567 1.602-4.666c.696-2.024 1.63-3.398 2.805-4.123 1.174-.724 2.566-.81 4.177-.256zM35.56 82.663l.906-1.721c.608-1.155.834-2.104.678-2.848-.156-.744-.655-1.338-1.5-1.782-.856-.451-1.62-.495-2.287-.131-.668.363-1.3 1.108-1.892 2.235l-.862 1.639 4.957 2.608zm2.054 1.081l6.056 3.187-1.304 2.478-15.161-7.978 2.252-4.283c1.03-1.957 2.159-3.212 3.386-3.767 1.228-.554 2.582-.443 4.062.336 1.886.993 2.715 2.682 2.484 5.068l8.963-.753-1.484 2.821-7.966.443-1.288 2.448zM55.241 68.72l-5.708 7.833-13.846-10.09 5.708-7.833 1.913 1.394-4.058 5.57 3.77 2.745 3.802-5.218 1.894 1.38-3.803 5.22 4.348 3.167 4.057-5.569zM67.278 56.285l-2.444 2.412-15.587-3.802-.067.066.577.502a53.584 53.584 0 0 1 2.916 2.72l6.254 6.34-1.809 1.787-12.033-12.197 2.42-2.386 15.52 3.767.05-.05a76.825 76.825 0 0 1-1.446-1.332 67.68 67.68 0 0 1-1.907-1.83l-6.304-6.391 1.827-1.802 12.033 12.196zM75.213 50.548l-2.287 1.617-8.503-12.03-4.115 2.91-1.387-1.962 10.517-7.434 1.386 1.962-4.114 2.909zM81.328 46.691l-8.354-14.958 2.445-1.365 8.354 14.957zM88.278 26.728c-1.485.619-2.435 1.632-2.847 3.04-.412 1.407-.232 3.038.54 4.89.81 1.94 1.83 3.238 3.063 3.892 1.232.655 2.625.658 4.176.012.67-.28 1.291-.616 1.863-1.011a24.437 24.437 0 0 0 1.744-1.33l.924 2.218c-1.045.986-2.354 1.806-3.926 2.46-2.315.965-4.385 1.005-6.21.119-1.824-.886-3.28-2.634-4.368-5.245-.686-1.644-.984-3.208-.896-4.692.088-1.484.566-2.792 1.432-3.923.866-1.131 2.067-2.016 3.603-2.657 1.615-.672 3.25-.955 4.902-.85l-.033 2.542a15.014 15.014 0 0 0-1.97.04 6.626 6.626 0 0 0-1.997.495M110.305 35.682l-9.393 2.389-4.22-16.605 9.392-2.388.583 2.294-6.678 1.698 1.149 4.52 6.258-1.59.577 2.27-6.258 1.591 1.325 5.213 6.679-1.697zM122.688 29.435c.174 1.514-.239 2.764-1.234 3.75-.995.987-2.456 1.59-4.381 1.81-1.925.22-3.535.102-4.83-.355l-.301-2.632c.818.277 1.676.469 2.573.579.897.11 1.722.122 2.475.036 1.102-.126 1.89-.43 2.368-.908.475-.48.672-1.072.593-1.778-.075-.636-.376-1.148-.908-1.536-.533-.387-1.585-.798-3.16-1.231-1.626-.451-2.8-1.044-3.53-1.778-.728-.735-1.157-1.67-1.287-2.802-.163-1.421.215-2.596 1.13-3.526.916-.931 2.224-1.493 3.924-1.687 1.63-.187 3.292-.015 4.989.515l-.625 2.37c-1.587-.462-2.974-.626-4.161-.491-.901.103-1.561.377-1.982.823-.421.445-.594.99-.521 1.634.05.442.187.81.409 1.103.222.293.563.555 1.022.786.457.23 1.268.51 2.431.842 1.31.377 2.28.758 2.915 1.142.633.383 1.118.843 1.455 1.378.335.536.547 1.188.635 1.956M139.42 34.447l-2.81-.12.331-7.715-7.892-.338-.33 7.715-2.798-.12.732-17.116 2.798.119-.3 7.002 7.892.337.3-7.001 2.809.12zM143.321 35.207l2.907-16.884 2.76.475-2.906 16.884zM155.243 28.762l1.43.416c1.38.402 2.461.457 3.246.165.785-.292 1.326-.95 1.623-1.97.275-.944.191-1.733-.25-2.367-.443-.633-1.276-1.127-2.498-1.483l-1.867-.544-1.684 5.783zm9.093-.672c-.5 1.717-1.446 2.87-2.837 3.458-1.393.588-3.127.578-5.204-.026l-1.71-.498-1.793 6.154-2.689-.783 4.79-16.45 4.737 1.38c2.054.598 3.472 1.466 4.252 2.604.78 1.139.93 2.525.454 4.16zM175.708 36.647l1.308.71c1.263.686 2.309.97 3.138.85.829-.119 1.497-.645 2.004-1.579.47-.865.556-1.654.258-2.367-.298-.713-1.006-1.373-2.125-1.98l-1.71-.928-2.873 5.294zm9.028 1.273c-.852 1.573-2.022 2.498-3.507 2.777-1.484.28-3.177-.098-5.08-1.13l-1.565-.85-3.058 5.634-2.461-1.336 8.172-15.058 4.336 2.354c1.882 1.021 3.082 2.17 3.603 3.448.519 1.277.373 2.665-.44 4.161zM189.124 44.395l1.55 1.177c1.038.789 1.937 1.168 2.697 1.136.76-.031 1.428-.426 2.004-1.185.586-.772.755-1.517.506-2.235-.248-.72-.88-1.464-1.894-2.234l-1.474-1.12-3.389 4.46zm-1.403 1.848l-4.14 5.449-2.23-1.693 10.363-13.644 3.854 2.928c1.76 1.337 2.814 2.656 3.16 3.959.344 1.302.011 2.619-1 3.95-1.29 1.698-3.093 2.237-5.408 1.617l-.732 8.965-2.538-1.928.873-7.93-2.202-1.673zM200.633 54.697c-1.545 1.436-2.427 2.837-2.645 4.203-.218 1.365.242 2.66 1.379 3.885 1.133 1.219 2.383 1.772 3.75 1.659 1.367-.113 2.83-.896 4.394-2.348 1.539-1.431 2.42-2.823 2.644-4.178.223-1.354-.231-2.641-1.364-3.86-1.143-1.23-2.404-1.79-3.782-1.676-1.378.112-2.836.884-4.376 2.315m8.904 9.579c-2.043 1.899-4.105 2.864-6.188 2.896-2.082.032-3.993-.888-5.733-2.76-1.76-1.893-2.55-3.871-2.37-5.932.18-2.06 1.307-4.054 3.378-5.98 2.07-1.925 4.137-2.892 6.196-2.903 2.06-.01 3.97.932 5.73 2.826 1.734 1.865 2.512 3.83 2.33 5.898-.18 2.066-1.294 4.05-3.343 5.955M216.534 73.48l3.38 5.324-7.264 4.61a18.335 18.335 0 0 1-2.195-2.125 21.118 21.118 0 0 1-1.826-2.484c-1.39-2.19-1.815-4.29-1.272-6.3.542-2.01 1.994-3.764 4.356-5.263 2.328-1.478 4.575-1.966 6.741-1.462 2.166.504 3.994 1.93 5.484 4.278a12.771 12.771 0 0 1 1.856 4.847l-2.497.418c-.204-1.517-.679-2.863-1.424-4.037-.98-1.543-2.239-2.456-3.778-2.737-1.54-.282-3.15.11-4.832 1.179-1.768 1.122-2.855 2.379-3.262 3.77-.407 1.393-.13 2.847.833 4.364.486.765 1.1 1.523 1.845 2.272l3.73-2.367-1.903-2.998 2.028-1.288zM223.093 85.916l.756 1.792c.507 1.203 1.097 1.98 1.77 2.332.675.352 1.45.342 2.329-.028.893-.377 1.41-.938 1.553-1.685.144-.747-.033-1.707-.527-2.881l-.72-1.706-5.161 2.176zm-2.14.9l-6.304 2.66-1.088-2.581 15.787-6.655 1.88 4.459c.859 2.037 1.113 3.707.762 5.008-.35 1.3-1.295 2.275-2.835 2.925-1.965.828-3.797.396-5.494-1.296l-5.106 7.405-1.238-2.937 4.713-6.438-1.076-2.55z" fill="#FFF"/><path d="M227.908 106.778l4.15-2.667c.275-.188.714-.462 1.318-.823a31.046 31.046 0 0 1 1.333-.766 26.278 26.278 0 0 1-3.282-.151l-4.705-.443 1.186 4.85zm-6.386 4.082l4.216-2.791-1.556-6.364-5.019-.498-.7-2.87 18.232 2.143.724 2.96-15.19 10.312-.707-2.892zM222.873 122.632l14.06-5.637-.005-.093a96.313 96.313 0 0 1-5.96.48l-8.324.392-.12-2.54 17.115-.807.185 3.945-13.389 5.394.002.07 13.845 4.252.187 3.957-17.115.806-.127-2.693 8.464-.398c.85-.04 1.96-.071 3.328-.093 1.367-.021 2.196-.023 2.486-.006l-.004-.092-14.512-4.467-.116-2.47z" fill="#FFF"/><g transform="translate(0 -.882)"><mask id="b" fill="#fff"><use xlink:href="#a"/></mask><path d="M128.559.882c-34.34 0-66.623 13.373-90.904 37.654C13.372 62.818 0 95.102 0 129.44s13.372 66.624 37.655 90.905C61.935 244.628 94.22 258 128.559 258c34.34 0 66.624-13.372 90.905-37.654 24.283-24.281 37.655-56.566 37.655-90.905 0-34.34-13.372-66.623-37.655-90.905C195.183 14.255 162.899.882 128.559.882m0 1c70.449 0 127.56 57.11 127.56 127.559S199.008 257 128.559 257C58.11 257 .999 199.89.999 129.44 1 58.993 58.112 1.883 128.56 1.883" fill="#FFF" mask="url(#b)"/></g><path fill="#FFF" d="M55.807 212.466l-.866-.841 5.867-6.047-7.183-6.968-5.867 6.046-.857-.832 11.93-12.296.858.833-5.296 5.458 7.183 6.968 5.295-5.458.867.84zM66.15 209.86c-1.372 2.034-1.979 3.912-1.822 5.635.157 1.721 1.084 3.155 2.781 4.301 1.71 1.153 3.388 1.484 5.034.993 1.646-.49 3.162-1.764 4.547-3.817 1.381-2.047 1.987-3.92 1.82-5.62-.167-1.702-1.098-3.125-2.796-4.269-1.689-1.14-3.364-1.47-5.023-.987-1.66.483-3.173 1.738-4.54 3.764m11.617 7.84c-1.52 2.254-3.286 3.656-5.298 4.207-2.01.551-4.008.158-5.99-1.179-1.976-1.333-3.084-3.035-3.326-5.107s.401-4.24 1.931-6.507c1.525-2.26 3.294-3.656 5.306-4.189 2.013-.53 4.004-.132 5.973 1.196 1.981 1.338 3.092 3.036 3.332 5.097.24 2.061-.402 4.222-1.928 6.482M77.984 227.33l7.302-15.5 1.081.51-6.822 14.481 7.39 3.481-.48 1.018zM90.192 232.623l5.842-16.106 1.122.407-5.84 16.106zM110.44 229.315c.564-2.387.383-4.327-.546-5.818-.927-1.493-2.565-2.517-4.915-3.073l-3.067-.725-3.459 14.62 2.76.652c4.98 1.18 8.055-.707 9.227-5.656m1.276.254c-.662 2.798-1.896 4.74-3.703 5.825-1.806 1.086-4.132 1.293-6.975.62l-3.992-.944 3.947-16.673 4.504 1.066c2.66.63 4.52 1.804 5.579 3.524 1.058 1.72 1.27 3.913.64 6.582M117.544 231.781l6.111.464-1.857-6.334a29.685 29.685 0 0 1-.549-2.064 18.805 18.805 0 0 1-.844 1.982l-2.861 5.952zm6.427 1.57l-6.941-.527-2.841 5.85-1.321-.102 8.173-16.632.76.058 5.429 17.664-1.344-.102-1.915-6.21zM134.58 231.509l4.472-9.646 1.286-.075-5.097 10.822.378 6.61-1.228.07-.373-6.516-6.327-10.261 1.368-.08zM149.211 220.908c-2.108.415-3.635 1.417-4.58 3.005-.945 1.588-1.187 3.554-.724 5.9.473 2.4 1.41 4.15 2.815 5.25 1.403 1.101 3.166 1.442 5.29 1.024 1.41-.279 2.67-.714 3.779-1.307l.204 1.034c-1.034.611-2.384 1.08-4.047 1.407-2.36.465-4.37.07-6.027-1.189-1.657-1.258-2.756-3.255-3.295-5.99-.337-1.71-.31-3.28.081-4.71.391-1.432 1.124-2.62 2.199-3.57 1.076-.948 2.417-1.582 4.028-1.899 1.639-.323 3.168-.306 4.585.053l-.264 1.15a8.682 8.682 0 0 0-4.044-.158M173.053 230.34l-1.131.42-2.94-7.896-9.378 3.492 2.939 7.896-1.12.417-5.977-16.056 1.12-.417 2.653 7.127 9.38-3.491-2.654-7.128 1.13-.421zM187.06 222.908l-8.175 4.566-8.354-14.958 8.175-4.565.537.961-7.132 3.983 3.16 5.658 6.732-3.76.537.962-6.732 3.76 3.583 6.414 7.13-3.982zM187.525 202.548c-1.71 1.3-2.643 2.87-2.794 4.712-.15 1.842.496 3.714 1.942 5.617 1.48 1.948 3.091 3.108 4.835 3.48 1.746.372 3.48-.096 5.203-1.406 1.144-.87 2.085-1.813 2.821-2.834l.638.84c-.662 1.002-1.667 2.017-3.017 3.042-1.916 1.455-3.896 1.983-5.937 1.58-2.042-.401-3.906-1.713-5.592-3.933-1.054-1.387-1.72-2.81-1.997-4.267-.279-1.457-.143-2.848.406-4.172.55-1.324 1.477-2.482 2.783-3.475 1.332-1.011 2.712-1.667 4.142-1.968l.27 1.149a8.685 8.685 0 0 0-3.703 1.635M212.44 201.406l-1.028 1.043-11.059-1.666-.168 3.042 5.01 4.935-.84.852-12.203-12.024.839-.852 6.343 6.25-.02-2.684-.278-9.702 1.069-1.085.232 10.083zM128.559 46.62c-45.181 0-81.938 36.758-81.938 81.939 0 45.181 36.757 81.939 81.938 81.939 45.182 0 81.939-36.757 81.939-81.94 0-45.18-36.757-81.938-81.94-81.938m0 1c44.702 0 80.94 36.238 80.94 80.939 0 44.702-36.238 80.939-80.94 80.939-44.7 0-80.937-36.237-80.937-80.94 0-44.7 36.237-80.938 80.938-80.938"/><path fill="#FFF" d="M17.966 192.967l-.572-.82 38.045-26.486.572.82zM237.785 194.398l-37.972-27.439.586-.81 37.972 27.438z"/><path d="M24.528 140.505a103.968 103.968 0 0 0 12.24 38.416l1.015-.728a102.775 102.775 0 0 1-11.922-37.24l-1.333-.448zM230.97 143.145a102.749 102.749 0 0 1-12.473 36.546l1.019.721a103.976 103.976 0 0 0 12.749-37.305l-1.294.038zM118.665 89.691h3.488v27.378l-26.06 30.403c-4.817 5.618-6.647 10.865-5.022 14.397 1.624 3.532 6.8 5.557 14.197 5.557h46.581c7.4 0 12.574-2.025 14.198-5.556 1.624-3.53-.206-8.779-5.023-14.398l-26.06-30.405V89.691h-16.299zm33.184 83.56h-46.58c-9.915 0-16.834-3.179-19.488-8.949-2.654-5.769-.56-13.092 5.89-20.619l24.66-28.768V95.026a5.831 5.831 0 0 1-3.494-5.335 5.832 5.832 0 0 1 5.828-5.823h20.37a5.832 5.832 0 0 1 5.827 5.823 5.833 5.833 0 0 1-4.076 5.554v19.668l24.66 28.77c6.452 7.528 8.545 14.852 5.891 20.62-2.653 5.77-9.574 8.947-19.488 8.947z" fill="#FFF"/><path d="M126.574 136.625a6.621 6.621 0 0 0 1.983-.934 9.72 9.72 0 0 1 4.491-1.656 3.494 3.494 0 0 1-6.474 2.59m4.312 15.662a2.33 2.33 0 1 0 .001-4.659 2.33 2.33 0 0 0 0 4.66m-6.406-5.242a2.91 2.91 0 1 0 .003-5.821 2.91 2.91 0 0 0-.003 5.821m2.093-10.42c-4.129 1.158-8.35-1.937-9.24-.935l-15.712 18.967c-1.846 2.227-.995 4.034 1.9 4.034h50.073c2.896 0 3.746-1.806 1.9-4.034l-15.712-18.967c-.709-.798-3.53-2.006-6.734-1.656a3.497 3.497 0 0 0-3.327-2.419 3.493 3.493 0 0 0-3.148 5.01" fill="#FFF"/></g></svg>